<?xml version="1.0" encoding="utf-8"?>
<!-- Generator: Adobe Illustrator 17.1.0, SVG Export Plug-In . SVG Version: 6.00 Build 0)  -->
<!DOCTYPE svg PUBLIC "-//W3C//DTD SVG 1.1//EN" "http://www.w3.org/Graphics/SVG/1.1/DTD/svg11.dtd">
<svg version="1.1" id="Layer_1" xmlns="http://www.w3.org/2000/svg" xmlns:xlink="http://www.w3.org/1999/xlink" x="0px" y="0px"
	 viewBox="0 0 612 792" enable-background="new 0 0 612 792" xml:space="preserve">
<path fill="none" stroke="#000000" stroke-width="2" d="M289,389.5c-4.3-0.3-8.5-1.7-12.9-1.6c-3.3,0.1-6.6,1.1-9.4,2.8
	c-1.7,1-1.8,3.5-2.3,5.4c-0.4,1.9-0.3,4.1,0.9,5.6c0.3,0.5,0.8,0.9,1.2,1.3c1,1,2,1.9,3.1,2.9c1.7,1.5,3.5,3.2,5.8,3.3
	c2.5,0.1,5,0.5,7.4-0.2c2-0.5,3.9-1.7,5.9-1.4c2.7-2.2,4.3-5.2,5.9-8.3c1-2,0.7-4.4,0.7-6.6C293,391.7,291.5,389.6,289,389.5z"/>
<path fill="none" stroke="#000000" stroke-width="2" d="M342.3,384.5c-4.3-0.3-8.5-1.7-12.9-1.6c-3.3,0.1-6.6,1.1-9.4,2.8
	c-1.7,1-1.8,3.5-2.3,5.4c-0.4,1.9-0.3,4.1,0.9,5.6c0.3,0.5,0.8,0.9,1.2,1.3c1,1,2,1.9,3.1,2.9c1.7,1.5,3.5,3.2,5.8,3.3
	c2.5,0.1,5,0.5,7.4-0.2c2-0.5,3.9-1.7,5.9-1.4c2.7-2.2,4.3-5.2,5.9-8.3c1-2,0.7-4.4,0.7-6.6C346.3,386.7,344.9,384.6,342.3,384.5z"
	/>
</svg>
